<svg viewBox="0 0 1024 1024" xmlns="http://www.w3.org/2000/svg">
  <path d="M42.666667 912.042667v-10.154667c2.474667-9.173333 4.437333-18.688 7.594666-27.434667C173.866667 528.085333 253.354667 307.2 288.597333 211.797333c8.490667-22.954667 22.570667-47.36 42.24-73.258666C404.650667 41.386667 518.144-9.514667 639.573333 1.493333c199.253333 17.92 342.314667 200.277333 310.186667 400.426667-11.349333 71.082667-42.666667 133.290667-93.994667 186.581333-19.968 20.736-43.733333 38.4-70.954666 60.714667-108.970667 89.130667-257.024 207.104-444.202667 353.834667-9.6 7.509333-28.586667 21.12-40.106667 20.906666a8.234667 8.234667 0 0 1-8.064-8.576c0.426667-8.789333 3.328-20.138667 8.661334-34.133333 1.706667-4.565333 18.773333-40.746667 51.072-108.544 3.882667-8.192 6.4-16.384 7.637333-24.576a6.058667 6.058667 0 0 0-7.424-6.826667 63.146667 63.146667 0 0 0-21.589333 10.154667c-17.664 12.330667-36.693333 27.648-57.045334 45.952a14324.906667 14324.906667 0 0 0-80.853333 73.258667c-16.554667 15.445333-34.432 29.44-53.461333 41.685333a6.528 6.528 0 0 1-9.514667-3.157333c-1.152-2.858667-1.024-7.04 0.426667-12.458667 4.778667-18.048 12.074667-38.485333 21.845333-61.312 7.210667-16.896 22.144-51.456 44.8-103.594667 7.253333-16.64 29.738667-67.925333 26.069333-80.938666a7.125333 7.125333 0 0 0-10.837333-3.925334c-12.074667 8.277333-25.301333 20.650667-39.68 37.12-33.365333 38.144-66.858667 75.946667-100.565333 113.28-10.538667 11.733333-20.309333 16.64-29.312 14.677334z" fill="#00ACE2"/>
  <path d="M891.136 346.453333A283.392 283.392 0 1 1 324.266667 346.368a283.392 283.392 0 0 1 566.826666 0z" fill="#FFFFFF"/>
  <path d="M821.76 346.453333a214.016 214.016 0 1 1-427.989333 0 214.016 214.016 0 0 1 427.989333 0z" fill="#0073C3"/>
  <path d="M695.168 204.757333a131.84 131.84 0 0 1 36.352 189.44c-41.002667 56.234667-103.594667 12.8-145.962667-13.696-42.368-26.453333-109.013333-63.488-76.544-125.056a131.84 131.84 0 0 1 186.154667-50.688z" fill="#FFFFFF"/>
</svg>
