<svg xmlns="http://www.w3.org/2000/svg" viewBox="0 0 24 24" width="24" height="24">
  <path d="M14.65 14.35a0.375 0.375 0 0 0-0.75 0v0.253a0.375 0.375 0 1 0 0.75 0v-0.253zM22.13 12.04a0.375 0.375 0 1 0-0.75 0v0.52a0.375 0.375 0 0 0 0.75 0v-0.52zM20.63 12.35a0.375 0.375 0 1 0-0.75 0v1.47a0.375 0.375 0 0 0 0.75 0v-1.47zM19.13 12.71a0.375 0.375 0 1 0-0.75 0v1.69a0.375 0.375 0 1 0 0.75 0v-1.69zM17.63 13.01a0.375 0.375 0 1 0-0.75 0v1.67a0.375 0.375 0 0 0 0.75 0v-1.67zM16.13 13.27a0.375 0.375 0 1 0-0.75 0v1.4a0.375 0.375 0 0 0 0.75 0v-1.4z" fill="#6F6F70"/>
  <path d="M2.53 9.73a0.375 0.375 0 0 0-0.75 0v0.16a0.375 0.375 0 0 0 0.75 0V9.73zM4.07 9.86a0.375 0.375 0 0 0-0.75 0v0.69a0.375 0.375 0 0 0 0.75 0v-0.69zM5.61 9.66a0.375 0.375 0 0 0-0.75 0v2.88a0.375 0.375 0 0 0 0.75 0V9.66zM7.15 9.36a0.375 0.375 0 0 0-0.75 0v0.19a0.375 0.375 0 0 0 0.75 0v-0.19zM7.15 11.86a0.375 0.375 0 0 0-0.75 0v1.98a0.375 0.375 0 0 0 0.75 0v-1.98zM8.63 11.38a0.375 0.375 0 1 0-0.75 0v3.97a0.375 0.375 0 1 0 0.75 0v-3.97zM10.13 10.78a0.375 0.375 0 1 0-0.75 0v4.04a0.375 0.375 0 0 0 0.75 0v-4.04zM11.63 9.93a0.375 0.375 0 1 0-0.75 0v4.68a0.375 0.375 0 1 0 0.75 0V9.93zM13.13 9.28a0.375 0.375 0 1 0-0.75 0v5.24a0.375 0.375 0 1 0 0.75 0V9.28z" fill="#FFFFFF"/>
</svg>

